<svg width="987" height="900" viewBox="0 0 987 900" fill="none" xmlns="http://www.w3.org/2000/svg">
<g clip-path="url(#clip0_305_658)">
<mask id="path-1-inside-1_305_658" fill="white">
<path d="M0 0H987V900H0V0Z"/>
</mask>
<path d="M0 0H987V900H0V0Z" fill="white"/>
<g filter="url(#filter0_f_305_658)">
<path fill-rule="evenodd" clip-rule="evenodd" d="M641 854.172H-55C-62.732 854.172 -69 854.71 -69 855.374V869.626C-69 870.29 -62.732 870.828 -55 870.828H641C648.732 870.828 655 870.29 655 869.626V855.374C655 854.71 648.732 854.172 641 854.172ZM-55 854C-63.8366 854 -71 854.615 -71 855.374V869.626C-71 870.385 -63.8366 871 -55 871H641C649.837 871 657 870.385 657 869.626V855.374C657 854.615 649.837 854 641 854H-55Z" fill="url(#paint0_linear_305_658)"/>
<path fill-rule="evenodd" clip-rule="evenodd" d="M641 854.172H-55C-62.732 854.172 -69 854.71 -69 855.374V869.626C-69 870.29 -62.732 870.828 -55 870.828H641C648.732 870.828 655 870.29 655 869.626V855.374C655 854.71 648.732 854.172 641 854.172ZM-55 854C-63.8366 854 -71 854.615 -71 855.374V869.626C-71 870.385 -63.8366 871 -55 871H641C649.837 871 657 870.385 657 869.626V855.374C657 854.615 649.837 854 641 854H-55Z" fill="black" fill-opacity="0.2"/>
</g>
<g opacity="0.5">
<g opacity="0.3" filter="url(#filter1_f_305_658)">
<circle cx="398.909" cy="359.909" r="68.9087" fill="#3758F9"/>
</g>
<g filter="url(#filter2_f_305_658)">
<circle cx="394.373" cy="692.764" r="45.881" fill="url(#paint1_linear_305_658)"/>
</g>
<g opacity="0.3" filter="url(#filter3_f_305_658)">
<rect x="383.561" y="845.097" width="370.203" height="223.612" rx="11.5659" transform="rotate(-30 383.561 845.097)" fill="#6843EC"/>
</g>
</g>
<path opacity="0.2" d="M-118.19 -238.544V-159.646M-118.19 -159.646L-118.19 -80.2912M-118.19 -159.646H-197.544M-118.19 -159.646H-38.8352M-118.19 -80.2912V-0.936829M-118.19 -80.2912H-197.544M-118.19 -80.2912H-38.8352M-118.19 -0.936829L-118.19 78.4176M-118.19 -0.936829H-197.544M-118.19 -0.936829H-38.8352M-118.19 78.4176V157.772M-118.19 78.4176H-197.544M-118.19 78.4176H-38.8352M-118.19 157.772L-118.19 237.126M-118.19 157.772H-197.544M-118.19 157.772H-38.8352M-118.19 237.126V316.481M-118.19 237.126H-197.544M-118.19 237.126H-38.8352M-118.19 316.481L-118.19 395.835M-118.19 316.481H-197.544M-118.19 316.481H-38.8352M-118.19 395.835V475.19M-118.19 395.835H-197.544M-118.19 395.835H-38.8352M-118.19 475.19L-118.19 554.544M-118.19 475.19H-197.544M-118.19 475.19H-38.8352M-118.19 554.544V555M-118.19 554.544H-197.544M-118.19 554.544H-38.8352M-197.544 -238.544L-197.544 -159.646M-197.544 -159.646L-197.544 -80.2912M-197.544 -159.646H-198M-197.544 -80.2912L-197.544 -0.936829M-197.544 -80.2912H-198M-197.544 -0.936829L-197.544 78.4176M-197.544 -0.936829H-198M-197.544 78.4176L-197.544 157.772M-197.544 78.4176H-198M-197.544 157.772L-197.544 237.126M-197.544 157.772H-198M-197.544 237.126L-197.544 316.481M-197.544 237.126H-198M-197.544 316.481L-197.544 395.835M-197.544 316.481H-198M-197.544 395.835L-197.544 475.19M-197.544 395.835H-198M-197.544 475.19L-197.544 554.544M-197.544 475.19H-198M-197.544 554.544L-197.544 555M-197.544 554.544H-198M-38.8352 -238.544V-159.646M-38.8352 -159.646L-38.8352 -80.2912M-38.8352 -159.646H40.5192M-38.8352 -80.2912V-0.936829M-38.8352 -80.2912H40.5192M-38.8352 -0.936829V78.4176M-38.8352 -0.936829H40.5192M-38.8352 78.4176V157.772M-38.8352 78.4176H40.5192M-38.8352 157.772L-38.8352 237.126M-38.8352 157.772H40.5192M-38.8352 237.126V316.481M-38.8352 237.126H40.5192M-38.8352 316.481V395.835M-38.8352 316.481H40.5192M-38.8352 395.835L-38.8352 475.19M-38.8352 395.835H40.5192M-38.8352 475.19V554.544M-38.8352 475.19H40.5192M-38.8352 554.544V555M-38.8352 554.544H40.5192M40.5192 -238.544V-159.646M40.5192 -159.646V-80.2912M40.5192 -159.646H119.874M40.5192 -80.2912L40.5192 -0.936829M40.5192 -80.2912H119.874M40.5192 -0.936829V78.4176M40.5192 -0.936829H119.874M40.5192 78.4176V157.772M40.5192 78.4176H119.874M40.5192 157.772V237.126M40.5192 157.772H119.874M40.5192 237.126V316.481M40.5192 237.126H119.874M40.5192 316.481L40.5192 395.835M40.5192 316.481H119.874M40.5192 395.835V475.19M40.5192 395.835H119.874M40.5192 475.19V554.544M40.5192 475.19H119.874M40.5192 554.544V555M40.5192 554.544H119.874M119.874 -238.544V-159.646M119.874 -159.646V-80.2912M119.874 -159.646H199.228M119.874 -80.2912V-0.936829M119.874 -80.2912H199.228M119.874 -0.936829V78.4176M119.874 -0.936829H199.228M119.874 78.4176V157.772M119.874 78.4176H199.228M119.874 157.772L119.874 237.126M119.874 157.772H199.228M119.874 237.126V316.481M119.874 237.126H199.228M119.874 316.481V395.835M119.874 316.481H199.228M119.874 395.835V475.19M119.874 395.835H199.228M119.874 475.19V554.544M119.874 475.19H199.228M119.874 554.544V555M119.874 554.544H199.228M199.228 -238.544V-159.646M199.228 -159.646V-80.2912M199.228 -159.646H278.582M199.228 -80.2912V-0.936829M199.228 -80.2912H278.582M199.228 -0.936829V78.4176M199.228 -0.936829H278.582M199.228 78.4176V157.772M199.228 78.4176H278.582M199.228 157.772L199.228 237.126M199.228 157.772H278.582M199.228 237.126V316.481M199.228 237.126H278.582M199.228 316.481V395.835M199.228 316.481H278.582M199.228 395.835V475.19M199.228 395.835H278.582M199.228 475.19V554.544M199.228 475.19H278.582M199.228 554.544V555M199.228 554.544H278.582M278.582 -238.544V-159.646M278.582 -159.646V-80.2912M278.582 -159.646H357.937M278.582 -80.2912V-0.936829M278.582 -80.2912H357.937M278.582 -0.936829V78.4176M278.582 -0.936829H357.937M278.582 78.4176V157.772M278.582 78.4176H357.937M278.582 157.772L278.582 237.126M278.582 157.772H357.937M278.582 237.126V316.481M278.582 237.126H357.937M278.582 316.481V395.835M278.582 316.481H357.937M278.582 395.835V475.19M278.582 395.835H357.937M278.582 475.19V554.544M278.582 475.19H357.937M278.582 554.544V555M278.582 554.544H357.937M357.937 -238.544V-159.646M357.937 -159.646V-80.2912M357.937 -159.646H437.291M357.937 -80.2912V-0.936829M357.937 -80.2912H437.291M357.937 -0.936829V78.4176M357.937 -0.936829H437.291M357.937 78.4176V157.772M357.937 78.4176H437.291M357.937 157.772L357.937 237.126M357.937 157.772H437.291M357.937 237.126V316.481M357.937 237.126H437.291M357.937 316.481V395.835M357.937 316.481H437.291M357.937 395.835V475.19M357.937 395.835H437.291M357.937 475.19V554.544M357.937 475.19H437.291M357.937 554.544V555M357.937 554.544H437.291M437.291 -238.544V-159.646M437.291 -159.646V-80.2912M437.291 -159.646H516.646M437.291 -80.2912V-0.936829M437.291 -80.2912H516.646M437.291 -0.936829V78.4176M437.291 -0.936829H516.646M437.291 78.4176V157.772M437.291 78.4176H516.646M437.291 157.772L437.291 237.126M437.291 157.772H516.646M437.291 237.126V316.481M437.291 237.126H516.646M437.291 316.481V395.835M437.291 316.481H516.646M437.291 395.835V475.19M437.291 395.835H516.646M437.291 475.19V554.544M437.291 475.19H516.646M437.291 554.544V555M437.291 554.544H516.646M516.646 -238.544V-159.646M516.646 -159.646V-80.2912M516.646 -159.646H595.544M516.646 -80.2912V-0.936829M516.646 -80.2912H595.544M516.646 -0.936829V78.4176M516.646 -0.936829H595.544M516.646 78.4176V157.772M516.646 78.4176H595.544M516.646 157.772L516.646 237.126M516.646 157.772H595.544M516.646 237.126V316.481M516.646 237.126H595.544M516.646 316.481V395.835M516.646 316.481H595.544M516.646 395.835V475.19M516.646 395.835H595.544M516.646 475.19V554.544M516.646 475.19H595.544M516.646 554.544V555M516.646 554.544H595.544M596 -238.544L596 555M-198 -239H595.544M675.81 -238.544V-159.646M675.81 -159.646V-80.2912M675.81 -159.646H596.456M675.81 -159.646H755.165M675.81 -80.2912V-0.936829M675.81 -80.2912H596.456M675.81 -80.2912H755.165M675.81 -0.936829V78.4176M675.81 -0.936829H596.456M675.81 -0.936829H755.165M675.81 78.4176V157.772M675.81 78.4176H596.456M675.81 78.4176H755.165M675.81 157.772V237.126M675.81 157.772H596.456M675.81 157.772H755.165M675.81 237.126V316.481M675.81 237.126H596.456M675.81 237.126H755.165M675.81 316.481V395.835M675.81 316.481H596.456M675.81 316.481H755.165M675.81 395.835V475.19M675.81 395.835H596.456M675.81 395.835H755.165M675.81 475.19V554.544M675.81 475.19H596.456M675.81 475.19H755.165M675.81 554.544V555M675.81 554.544H596.456M675.81 554.544H755.165M596.456 -238.544V-159.646M596.456 -159.646V-80.2912M596.456 -159.646H596M596.456 -80.2912V-0.936829M596.456 -80.2912H596M596.456 -0.936829V78.4176M596.456 -0.936829H596M596.456 78.4176V157.772M596.456 78.4176H596M596.456 157.772V237.126M596.456 157.772H596M596.456 237.126V316.481M596.456 237.126H596M596.456 316.481V395.835M596.456 316.481H596M596.456 395.835V475.19M596.456 395.835H596M596.456 475.19V554.544M596.456 475.19H596M596.456 554.544V555M596.456 554.544H596M755.165 -238.544V-159.646M755.165 -159.646L755.165 -80.2912M755.165 -159.646H834.519M755.165 -80.2912V-0.936829M755.165 -80.2912H834.519M755.165 -0.936829V78.4176M755.165 -0.936829H834.519M755.165 78.4176V157.772M755.165 78.4176H834.519M755.165 157.772V237.126M755.165 157.772H834.519M755.165 237.126V316.481M755.165 237.126H834.519M755.165 316.481V395.835M755.165 316.481H834.519M755.165 395.835V475.19M755.165 395.835H834.519M755.165 475.19V554.544M755.165 475.19H834.519M755.165 554.544V555M755.165 554.544H834.519M834.519 -238.544V-159.646M834.519 -159.646V-80.2912M834.519 -159.646H913.874M834.519 -80.2912V-0.936829M834.519 -80.2912H913.874M834.519 -0.936829V78.4176M834.519 -0.936829H913.874M834.519 78.4176V157.772M834.519 78.4176H913.874M834.519 157.772V237.126M834.519 157.772H913.874M834.519 237.126V316.481M834.519 237.126H913.874M834.519 316.481L834.519 395.835M834.519 316.481H913.874M834.519 395.835V475.19M834.519 395.835H913.874M834.519 475.19V554.544M834.519 475.19H913.874M834.519 554.544V555M834.519 554.544H913.874M913.874 -238.544V-159.646M913.874 -159.646V-80.2912M913.874 -159.646H993.228M913.874 -80.2912V-0.936829M913.874 -80.2912H993.228M913.874 -0.936829V78.4176M913.874 -0.936829H993.228M913.874 78.4176V157.772M913.874 78.4176H993.228M913.874 157.772L913.874 237.126M913.874 157.772H993.228M913.874 237.126V316.481M913.874 237.126H993.228M913.874 316.481V395.835M913.874 316.481H993.228M913.874 395.835V475.19M913.874 395.835H993.228M913.874 475.19V554.544M913.874 475.19H993.228M913.874 554.544V555M913.874 554.544H993.228M993.228 -238.544V-159.646M993.228 -159.646V-80.2912M993.228 -159.646H1072.58M993.228 -80.2912V-0.936829M993.228 -80.2912H1072.58M993.228 -0.936829V78.4176M993.228 -0.936829H1072.58M993.228 78.4176V157.772M993.228 78.4176H1072.58M993.228 157.772V237.126M993.228 157.772H1072.58M993.228 237.126V316.481M993.228 237.126H1072.58M993.228 316.481V395.835M993.228 316.481H1072.58M993.228 395.835V475.19M993.228 395.835H1072.58M993.228 475.19V554.544M993.228 475.19H1072.58M993.228 554.544V555M993.228 554.544H1072.58M1072.58 -238.544V-159.646M1072.58 -159.646V-80.2912M1072.58 -159.646H1151.94M1072.58 -80.2912V-0.936829M1072.58 -80.2912H1151.94M1072.58 -0.936829V78.4176M1072.58 -0.936829H1151.94M1072.58 78.4176V157.772M1072.58 78.4176H1151.94M1072.58 157.772V237.126M1072.58 157.772H1151.94M1072.58 237.126V316.481M1072.58 237.126H1151.94M1072.58 316.481V395.835M1072.58 316.481H1151.94M1072.58 395.835V475.19M1072.58 395.835H1151.94M1072.58 475.19V554.544M1072.58 475.19H1151.94M1072.58 554.544V555M1072.58 554.544H1151.94M1151.94 -238.544V-159.646M1151.94 -159.646V-80.2912M1151.94 -159.646H1231.29M1151.94 -80.2912V-0.936829M1151.94 -80.2912H1231.29M1151.94 -0.936829V78.4176M1151.94 -0.936829H1231.29M1151.94 78.4176V157.772M1151.94 78.4176H1231.29M1151.94 157.772V237.126M1151.94 157.772H1231.29M1151.94 237.126V316.481M1151.94 237.126H1231.29M1151.94 316.481V395.835M1151.94 316.481H1231.29M1151.94 395.835V475.19M1151.94 395.835H1231.29M1151.94 475.19V554.544M1151.94 475.19H1231.29M1151.94 554.544V555M1151.94 554.544H1231.29M1231.29 -238.544V-159.646M1231.29 -159.646V-80.2912M1231.29 -159.646H1310.65M1231.29 -80.2912V-0.936829M1231.29 -80.2912H1310.65M1231.29 -0.936829V78.4176M1231.29 -0.936829H1310.65M1231.29 78.4176V157.772M1231.29 78.4176H1310.65M1231.29 157.772L1231.29 237.126M1231.29 157.772H1310.65M1231.29 237.126V316.481M1231.29 237.126H1310.65M1231.29 316.481V395.835M1231.29 316.481H1310.65M1231.29 395.835V475.19M1231.29 395.835H1310.65M1231.29 475.19V554.544M1231.29 475.19H1310.65M1231.29 554.544V555M1231.29 554.544H1310.65M1310.65 -238.544V-159.646M1310.65 -159.646V-80.2912M1310.65 -159.646H1389.54M1310.65 -80.2912V-0.936829M1310.65 -80.2912H1389.54M1310.65 -0.936829V78.4176M1310.65 -0.936829H1389.54M1310.65 78.4176V157.772M1310.65 78.4176H1389.54M1310.65 157.772V237.126M1310.65 157.772H1389.54M1310.65 237.126V316.481M1310.65 237.126H1389.54M1310.65 316.481V395.835M1310.65 316.481H1389.54M1310.65 395.835V475.19M1310.65 395.835H1389.54M1310.65 475.19V554.544M1310.65 475.19H1389.54M1310.65 554.544V555M1310.65 554.544H1389.54M1390 -238.544V555M596 -239H1389.54" stroke="url(#paint2_radial_305_658)" stroke-opacity="0.6" stroke-width="0.7"/>
<path opacity="0.3" d="M597 -1L675.218 -0.999969V77.6189L597 77.6189V-1Z" fill="#DEE3DC"/>
<g filter="url(#filter4_d_305_658)">
<path d="M279 78.957H357.607V157.5H279V78.957Z" fill="white"/>
</g>
<path opacity="0.2" d="M200 237.5L278.218 237.5V316.119L200 316.119V237.5Z" fill="#DEE3DC"/>
<g filter="url(#filter5_d_305_658)">
<path d="M755.5 158.157H834V236.808H755.5V158.157Z" fill="white"/>
</g>
</g>
<path d="M986 0V900H988V0H986Z" fill="black" fill-opacity="0.04" mask="url(#path-1-inside-1_305_658)"/>
<defs>
<filter id="filter0_f_305_658" x="-83" y="842" width="752" height="41" filterUnits="userSpaceOnUse" color-interpolation-filters="sRGB">
<feFlood flood-opacity="0" result="BackgroundImageFix"/>
<feBlend mode="normal" in="SourceGraphic" in2="BackgroundImageFix" result="shape"/>
<feGaussianBlur stdDeviation="6" result="effect1_foregroundBlur_305_658"/>
</filter>
<filter id="filter1_f_305_658" x="98.6817" y="59.6817" width="600.454" height="600.454" filterUnits="userSpaceOnUse" color-interpolation-filters="sRGB">
<feFlood flood-opacity="0" result="BackgroundImageFix"/>
<feBlend mode="normal" in="SourceGraphic" in2="BackgroundImageFix" result="shape"/>
<feGaussianBlur stdDeviation="115.659" result="effect1_foregroundBlur_305_658"/>
</filter>
<filter id="filter2_f_305_658" x="117.174" y="415.565" width="554.399" height="554.399" filterUnits="userSpaceOnUse" color-interpolation-filters="sRGB">
<feFlood flood-opacity="0" result="BackgroundImageFix"/>
<feBlend mode="normal" in="SourceGraphic" in2="BackgroundImageFix" result="shape"/>
<feGaussianBlur stdDeviation="115.659" result="effect1_foregroundBlur_305_658"/>
</filter>
<filter id="filter3_f_305_658" x="175.558" y="451.992" width="848.417" height="794.761" filterUnits="userSpaceOnUse" color-interpolation-filters="sRGB">
<feFlood flood-opacity="0" result="BackgroundImageFix"/>
<feBlend mode="normal" in="SourceGraphic" in2="BackgroundImageFix" result="shape"/>
<feGaussianBlur stdDeviation="106.117" result="effect1_foregroundBlur_305_658"/>
</filter>
<filter id="filter4_d_305_658" x="239" y="48.957" width="158.607" height="158.543" filterUnits="userSpaceOnUse" color-interpolation-filters="sRGB">
<feFlood flood-opacity="0" result="BackgroundImageFix"/>
<feColorMatrix in="SourceAlpha" type="matrix" values="0 0 0 0 0 0 0 0 0 0 0 0 0 0 0 0 0 0 127 0" result="hardAlpha"/>
<feOffset dy="10"/>
<feGaussianBlur stdDeviation="20"/>
<feComposite in2="hardAlpha" operator="out"/>
<feColorMatrix type="matrix" values="0 0 0 0 0.4 0 0 0 0 0.435294 0 0 0 0 0.552941 0 0 0 0.1 0"/>
<feBlend mode="normal" in2="BackgroundImageFix" result="effect1_dropShadow_305_658"/>
<feBlend mode="normal" in="SourceGraphic" in2="effect1_dropShadow_305_658" result="shape"/>
</filter>
<filter id="filter5_d_305_658" x="715.5" y="128.157" width="158.5" height="158.651" filterUnits="userSpaceOnUse" color-interpolation-filters="sRGB">
<feFlood flood-opacity="0" result="BackgroundImageFix"/>
<feColorMatrix in="SourceAlpha" type="matrix" values="0 0 0 0 0 0 0 0 0 0 0 0 0 0 0 0 0 0 127 0" result="hardAlpha"/>
<feOffset dy="10"/>
<feGaussianBlur stdDeviation="20"/>
<feComposite in2="hardAlpha" operator="out"/>
<feColorMatrix type="matrix" values="0 0 0 0 0.4 0 0 0 0 0.435294 0 0 0 0 0.552941 0 0 0 0.1 0"/>
<feBlend mode="normal" in2="BackgroundImageFix" result="effect1_dropShadow_305_658"/>
<feBlend mode="normal" in="SourceGraphic" in2="effect1_dropShadow_305_658" result="shape"/>
</filter>
<linearGradient id="paint0_linear_305_658" x1="-422.765" y1="854" x2="-214.844" y2="1415.17" gradientUnits="userSpaceOnUse">
<stop stop-color="#1ADCD2"/>
<stop offset="0.2" stop-color="#5886F8"/>
<stop offset="0.4" stop-color="#FF25B9"/>
<stop offset="0.6" stop-color="#FCAC54"/>
<stop offset="0.8" stop-color="#FF804A"/>
<stop offset="1" stop-color="#F94190"/>
</linearGradient>
<linearGradient id="paint1_linear_305_658" x1="348.492" y1="692.764" x2="440.254" y2="692.764" gradientUnits="userSpaceOnUse">
<stop stop-color="#E0C3FC"/>
<stop offset="1" stop-color="#8EC5FC"/>
</linearGradient>
<radialGradient id="paint2_radial_305_658" cx="0" cy="0" r="1" gradientUnits="userSpaceOnUse" gradientTransform="translate(433.5 106) rotate(138.903) scale(1002.53)">
<stop stop-color="#D076A6"/>
<stop offset="0.58" stop-opacity="0"/>
<stop offset="0.865" stop-opacity="0"/>
</radialGradient>
<clipPath id="clip0_305_658">
<path d="M0 0H987V900H0V0Z" fill="white"/>
</clipPath>
</defs>
</svg>
